<?xml version="1.0" encoding="UTF-8"?>
<svg width="314px" height="76px" viewBox="0 0 314 76" version="1.1" xmlns="http://www.w3.org/2000/svg" xmlns:xlink="http://www.w3.org/1999/xlink">
    <title>5CD002FB-50D5-4D55-9C9C-71F04E80AC72</title>
    <defs>
        <linearGradient x1="63.6647525%" y1="43.633929%" x2="107.411485%" y2="18.9521583%" id="linearGradient-1">
            <stop stop-color="#CC0000" offset="0%"></stop>
            <stop stop-color="#80171B" offset="100%"></stop>
        </linearGradient>
        <linearGradient x1="35.5915026%" y1="92.330838%" x2="49.8345748%" y2="52.3453383%" id="linearGradient-2">
            <stop stop-color="#096F35" offset="0%"></stop>
            <stop stop-color="#059242" offset="70%"></stop>
        </linearGradient>
        <linearGradient x1="10.01286%" y1="70.1458958%" x2="94.8637737%" y2="21.3256899%" id="linearGradient-3">
            <stop stop-color="#059242" offset="0%"></stop>
            <stop stop-color="#2F9936" offset="3%"></stop>
            <stop stop-color="#5AA12A" offset="7%"></stop>
            <stop stop-color="#81A720" offset="11%"></stop>
            <stop stop-color="#A1AD17" offset="16%"></stop>
            <stop stop-color="#BBB110" offset="20%"></stop>
            <stop stop-color="#D0B50A" offset="25%"></stop>
            <stop stop-color="#DEB706" offset="31%"></stop>
            <stop stop-color="#E6B904" offset="38%"></stop>
            <stop stop-color="#E9B903" offset="50%"></stop>
            <stop stop-color="#E8B403" offset="56%"></stop>
            <stop stop-color="#E6A403" offset="63%"></stop>
            <stop stop-color="#E28B02" offset="72%"></stop>
            <stop stop-color="#DC6702" offset="81%"></stop>
            <stop stop-color="#D53901" offset="90%"></stop>
            <stop stop-color="#CC0200" offset="100%"></stop>
            <stop stop-color="#CC0000" offset="100%"></stop>
        </linearGradient>
    </defs>
    <g id="------Brand" stroke="none" stroke-width="1" fill="none" fill-rule="evenodd">
        <g id="Brand" transform="translate(-65.000000, -539.000000)">
            <g id="logo_SNS24" transform="translate(65.000000, 539.000000)">
                <g id="Group" transform="translate(0.000000, 2.000000)" fill-rule="nonzero">
                    <path d="M36.8710836,-7.6679402e-15 C21.1234032,0.00142315616 7.12195529,10.0229095 2.04205848,24.9287502 C4.29751681,23.9197291 22.2224751,9.93588752 40.8359418,20.8807959 C69.5633586,37.1557085 52.9916751,66.749696 51.7096252,70.4771376 C67.6368394,63.4619086 76.4718955,46.2482208 72.8862569,29.2178719 C69.3006184,12.1875229 54.2748069,-0.00240137789 36.8710836,-7.6679402e-15 Z" id="Path" fill="url(#linearGradient-1)"></path>
                    <path d="M36.8710836,73.5992932 C52.6100335,73.5875888 66.5992893,63.5679991 71.6763669,48.6704168 C69.4209086,49.6675668 42.8658543,67.0227252 23.6825876,50.8309084 C15.1593293,43.6253125 14.8150752,31.6001584 16.6906668,19.729325 C18.245746,9.88840419 20.7267501,6.82572918 21.9969293,3.11015834 C6.04820364,10.1195345 -2.80028728,27.3518591 0.796589535,44.3975529 C4.39346636,61.4432469 19.4500567,73.6312693 36.8710836,73.5992932 Z" id="Path" fill="url(#linearGradient-2)"></path>
                    <path d="M19.0648335,24.9287502 C11.9423335,33.7487791 12.4527793,45.1091668 6.564846,46.0113502 C4.27377514,46.3674752 0.486979313,44.3494333 0.118983479,38.1409876 C0.695286865,54.0157489 11.392976,67.7288941 26.6502961,72.1509251 C23.1602709,67.319496 21.9019626,64.9334586 21.9019626,58.4994668 C21.9019626,42.378875 34.8055586,30.4961709 50.3919627,29.0716709 C62.547696,27.9676834 68.3762753,30.6386209 73.6240549,38.0460209 C73.6240549,37.6542834 73.6240549,37.2031918 73.6240549,36.8589376 C73.671463,27.0208697 69.7413673,17.5809338 62.7257585,10.68375 C60.3872044,8.30958334 36.2181878,3.65621668 19.0648335,24.9287502 Z" id="Path" fill="url(#linearGradient-3)"></path>
                </g>
                <g id="Group-100" transform="translate(91.000000, 0.000000)" fill="#504F51">
                    <g id="Group-90" transform="translate(0.438303, 0.550080)">
                        <polygon id="Fill-78" points="1.17815777 74.2047493 0.0877954111 74.2047493 0.0877954111 0.0717803645 1.17815777 0.116569426"></polygon>
                        <path d="M155.503724,61.6733592 L155.510808,54.5495411 C155.513168,52.2971227 156.393482,50.1201386 158.152931,48.01741 C159.911199,45.9135028 162.049442,43.9805012 164.56176,42.2207625 L172.091632,37.0110875 C174.653512,35.2513488 176.829516,33.2594142 178.624366,31.0317477 C180.418036,28.8052599 181.316051,26.5163031 181.318411,24.1648774 C181.320771,21.6189728 180.413316,19.3641972 178.599585,17.4017291 C176.783495,15.4416183 174.238136,14.4597949 170.962328,14.4550803 C168.198661,14.452723 165.956574,15.2023504 164.240787,16.702784 C162.52264,18.2020389 161.665927,20.3554498 161.662387,23.1618382 C161.662387,23.7040215 161.418118,24.1707707 160.934299,24.564443 C160.44812,24.9581153 159.797915,25.1537727 158.982503,25.1525941 C157.451983,25.1514154 156.688494,24.1483762 156.690854,22.1434763 C156.694394,18.6228204 158.078588,15.7150673 160.841075,13.4190386 C163.604743,11.1241885 167.031596,9.97853146 171.120455,9.98205928 C175.517305,9.98560342 179.158927,11.3304539 182.044139,14.0107257 C184.930531,16.6921761 186.371367,20.0301398 186.366647,24.0234383 C186.364287,26.4715141 185.722342,28.8217611 184.443172,31.0741795 C183.162822,33.3254192 181.576841,35.2348476 179.684047,36.7989288 C177.792434,38.3665459 175.720273,39.9553789 173.469926,41.5689638 L167.244004,45.822746 C165.34885,47.0461946 163.761689,48.4275835 162.480159,49.9692702 C161.199809,51.5097782 160.561404,53.0408569 160.559044,54.5589703 L160.554324,59.1144894 L185.027295,59.1392412 C185.537075,59.1392412 185.970151,59.3596505 186.328885,59.8004692 C186.686439,60.2412879 186.865806,60.7540048 186.864632,61.3409772 C186.864632,61.9279496 186.685259,62.4536318 186.328885,62.916845 C185.971332,63.3824155 185.539435,63.6134327 185.030835,63.6134327 L157.86618,63.5851449 C157.306838,63.5851449 156.772277,63.4000954 156.264857,63.0335323 C155.756258,62.6657905 155.502548,62.2120066 155.503724,61.6733592" id="Fill-80"></path>
                        <path d="M188.789397,48.9372359 C188.790579,48.4492709 188.892063,48.0332041 189.097391,47.6925715 L208.333318,11.4841511 C208.843098,10.508221 209.634909,10.020256 210.706391,10.0214325 C211.266912,10.0226133 211.815634,10.2182708 212.350194,10.6095858 C212.884755,11.0020794 213.152626,11.4676499 213.152626,12.0062973 C213.152626,12.2997835 213.073563,12.6180216 212.920157,12.9586542 L195.218289,46.3866167 L210.209591,46.4019393 L210.223752,32.116586 C210.224932,30.8837081 211.067485,30.2672692 212.75141,30.2684478 C213.412236,30.2696265 213.998718,30.4299242 214.508498,30.7516982 C215.018278,31.0722936 215.273168,31.5296135 215.271988,32.1213006 L215.259007,46.4078326 L219.465871,46.4101899 C220.078315,46.4101899 220.546793,46.6388499 220.879566,47.0879191 C221.211159,47.5381671 221.375185,48.0461693 221.375185,48.6154619 C221.374005,49.2319008 221.195818,49.7646549 220.838264,50.2137242 C220.47953,50.6616148 220.021672,50.8867388 219.461151,50.8855601 L215.254287,50.8808455 L215.242487,61.7150837 C215.241307,62.3091281 214.985237,62.7782346 214.476637,63.1235818 C213.964497,63.4689291 213.378014,63.642192 212.716009,63.6410193 C212.000901,63.6410193 211.402618,63.4665718 210.919979,63.1200459 C210.43498,62.77352 210.193071,62.3032348 210.194251,61.7103691 L210.204871,50.8773095 L190.777776,50.8560936 C189.451405,50.8549149 188.788219,50.2160815 188.789397,48.9372359" id="Fill-82"></path>
                        <path d="M34.8924217,63.8833458 C30.9038667,63.8833458 27.3955904,62.8496614 24.4336753,60.8035085 L24.4336753,60.8636201 L22.6470859,59.4810525 C19.1081284,56.5520836 18.0342867,51.641788 17.7369151,49.665176 L17.5846892,48.6574221 L26.0420778,46.819892 L26.2603863,47.906616 C26.5022957,49.118278 28.0564161,55.1530147 34.8924217,55.1530147 C38.5517438,55.1530147 40.7147679,53.355559 41.6989261,52.2499763 C42.467136,51.1184632 43.0418183,49.5143076 43.0418183,48.4888738 C43.0418183,47.2112069 42.7810282,46.1893091 42.3432312,45.7532051 L42.2641681,45.663627 C41.5242793,44.7407366 37.4920627,41.9237403 35.8470788,40.7769046 C34.9667646,40.3973763 33.7277164,39.4320541 33.0633506,38.7059998 C27.4274516,34.9826144 23.6560251,32.2728762 22.263571,30.2880136 C20.744852,27.9589824 19.8491972,25.2893186 19.8491972,23.1099771 C19.8491972,19.8226957 21.2676123,16.3927965 23.7398084,13.6995596 C27.2457246,10.0975761 30.9215674,9.37859377 35.7231739,9.37859377 C39.0391028,9.37859377 42.391613,10.5348588 45.4184306,12.7224508 C48.1879982,14.8947203 50.3935039,18.8220138 51.2089156,22.9944685 L51.4130635,24.0411181 L42.9108332,25.886899 L42.6925247,24.8001749 C41.9667965,21.1734395 38.7747725,18.1101035 35.7231739,18.1101035 C32.1499951,18.1101035 31.0855938,18.6016045 30.0518736,19.7036511 C29.6282371,20.1267899 28.5921569,21.4963923 28.5921569,23.0192203 C28.5921569,23.515436 29.1798197,24.6434132 29.4760112,25.1903112 C31.6638162,27.1138835 33.9448449,28.6897513 36.1515306,30.2125794 C37.2041315,30.9386336 38.2378516,31.6529013 39.2349904,32.3848489 C43.007597,35.0521553 47.1837792,38.075417 48.7721209,40.0567437 C50.6637344,42.3457004 51.6974546,45.5693342 51.5971507,48.8919754 C51.5971507,51.8398028 50.342762,55.332171 48.4015865,57.7531376 C45.7913251,60.5819205 41.3791337,63.8833458 34.8924217,63.8833458" id="Fill-84"></path>
                        <polygon id="Fill-86" points="96.4116339 63.6071858 88.8074184 63.6071858 66.1056964 27.7912591 66.1056964 63.6071858 57.4559603 63.6071858 57.4559603 9.8402747 65.0601758 9.8402747 87.5778106 45.2919956 87.5778106 9.8402747 96.4116339 9.8402747"></polygon>
                        <path d="M119.06757,63.8833458 C115.079015,63.8833458 111.570739,62.8496614 108.608824,60.8035085 L108.608824,60.8636201 L106.822234,59.4810525 C103.283277,56.5520836 102.209435,51.641788 101.912064,49.665176 L101.759838,48.6574221 L110.217226,46.819892 L110.435535,47.906616 C110.677444,49.118278 112.231565,55.1530147 119.06757,55.1530147 C122.726892,55.1530147 124.889916,53.355559 125.874075,52.2499763 C126.642284,51.1184632 127.216967,49.5143076 127.216967,48.4888738 C127.216967,47.2112069 126.956177,46.1893091 126.51838,45.7532051 L126.439317,45.663627 C125.699428,44.7407366 121.667211,41.9237403 120.022227,40.7769046 C119.141913,40.3973763 117.902865,39.4320541 117.238499,38.7059998 C111.6026,34.9826144 107.831174,32.2728762 106.438719,30.2880136 C104.92,27.9589824 104.024346,25.2893186 104.024346,23.1099771 C104.024346,19.8226957 105.442761,16.3927965 107.914957,13.6995596 C111.420873,10.0975761 115.096716,9.37859377 119.898322,9.37859377 C123.214251,9.37859377 126.566761,10.5348588 129.593579,12.7224508 C132.363147,14.8947203 134.568652,18.8220138 135.384064,22.9944685 L135.588212,24.0411181 L127.084802,25.886899 L126.867673,24.8001749 C126.141945,21.1734395 122.949921,18.1101035 119.898322,18.1101035 C116.325144,18.1101035 115.260742,18.6016045 114.227022,19.7036511 C113.803386,20.1267899 112.767305,21.4963923 112.767305,23.0192203 C112.767305,23.515436 113.354968,24.6434132 113.65116,25.1903112 C115.838965,27.1138835 118.119993,28.6897513 120.326679,30.2125794 C121.37928,30.9386336 122.413,31.6529013 123.408959,32.3848489 C127.182745,35.0521553 131.358928,38.075417 132.947269,40.0567437 C134.838883,42.3457004 135.872603,45.5693342 135.772299,48.8919754 C135.772299,51.8398028 134.51791,55.332171 132.576735,57.7531376 C129.966474,60.5819205 125.554282,63.8833458 119.06757,63.8833458" id="Fill-88"></path>
                    </g>
                </g>
            </g>
        </g>
    </g>
</svg>